<?xml version="1.0" encoding="UTF-8" standalone="no"?>
<!-- Created with Inkscape (http://www.inkscape.org/) -->

<svg
   xmlns:dc="http://purl.org/dc/elements/1.1/"
   xmlns:cc="http://creativecommons.org/ns#"
   xmlns:rdf="http://www.w3.org/1999/02/22-rdf-syntax-ns#"
   xmlns:svg="http://www.w3.org/2000/svg"
   xmlns="http://www.w3.org/2000/svg"
   xmlns:sodipodi="http://sodipodi.sourceforge.net/DTD/sodipodi-0.dtd"
   xmlns:inkscape="http://www.inkscape.org/namespaces/inkscape"
   width="25.4mm"
   height="128.49931mm"
   viewBox="0 0 25.4 128.49931"
   version="1.1"
   id="svg53422"
   inkscape:version="0.92.4 5da689c313, 2019-01-14"
   sodipodi:docname="Recorder.svg">
  <defs
     id="defs53416" />
  <sodipodi:namedview
     id="base"
     pagecolor="#ffffff"
     bordercolor="#666666"
     borderopacity="1.0"
     inkscape:pageopacity="0.0"
     inkscape:pageshadow="2"
     inkscape:zoom="1.4"
     inkscape:cx="68.781534"
     inkscape:cy="241.01226"
     inkscape:document-units="mm"
     inkscape:current-layer="layer2"
     showgrid="false"
     fit-margin-top="0"
     fit-margin-left="0"
     fit-margin-right="0"
     fit-margin-bottom="0"
     inkscape:snap-bbox="true"
     inkscape:snap-nodes="false"
     inkscape:snap-others="false"
     inkscape:snap-bbox-midpoints="true"
     inkscape:window-width="1600"
     inkscape:window-height="900"
     inkscape:window-x="0"
     inkscape:window-y="0"
     inkscape:window-maximized="1" />
  <metadata
     id="metadata53419">
    <rdf:RDF>
      <cc:Work
         rdf:about="">
        <dc:format>image/svg+xml</dc:format>
        <dc:type
           rdf:resource="http://purl.org/dc/dcmitype/StillImage" />
        <dc:title />
      </cc:Work>
    </rdf:RDF>
  </metadata>
  <g
     inkscape:label="Layer 1"
     inkscape:groupmode="layer"
     id="layer1"
     transform="translate(-110.52024,-100.45868)"
     style="display:inline">
    <path
       inkscape:connector-curvature="0"
       style="fill:#e6e6e6;fill-opacity:1;fill-rule:nonzero;stroke:none;stroke-width:0.35277778"
       d="m 110.61256,100.55238 h 25.21398 v 128.31328 h -25.21398 z m 0,0"
       id="path32301" />
    <path
       inkscape:connector-curvature="0"
       style="fill:#ababab;fill-opacity:1;fill-rule:nonzero;stroke:none;stroke-width:0.35277778"
       d="m 135.92024,100.45868 h -25.4 v 128.49931 h 25.4 z m -0.1874,128.31328 H 110.70629 V 100.64609 h 25.02655 z m 0,0"
       id="path32303" />
    <path
       inkscape:connector-curvature="0"
       style="fill:none;stroke:#000000;stroke-width:0.23495002;stroke-linecap:round;stroke-linejoin:round;stroke-miterlimit:10;stroke-opacity:1"
       d="m 117.21607,197.71097 h 12.00685"
       id="path40003" />
    <path
       inkscape:connector-curvature="0"
       style="fill:none;stroke:#000000;stroke-width:0.23495002;stroke-linecap:round;stroke-linejoin:round;stroke-miterlimit:10;stroke-opacity:1"
       d="m 117.21607,212.71229 h 12.00685"
       id="path40005" />
    <path
       inkscape:connector-curvature="0"
       style="fill:#000000;fill-opacity:1;stroke:none;stroke-width:0.35277778"
       d="m 119.05358,109.72065 c 0,0.1819 0.14333,0.33073 0.32523,0.33073 0.18189,0 0.32522,-0.14883 0.32522,-0.33073 v -0.64493 h 0.51813 l 0.6339,0.80478 c 0.0772,0.0992 0.17639,0.17088 0.32523,0.17088 0.15434,0 0.30868,-0.12127 0.30868,-0.30317 0,-0.0992 -0.0441,-0.17088 -0.10474,-0.24805 l -0.45201,-0.55122 c 0.35831,-0.14882 0.5898,-0.43546 0.5898,-0.90399 v -0.006 c 0,-0.28112 -0.0882,-0.51263 -0.25354,-0.67799 -0.19293,-0.19293 -0.48507,-0.30318 -0.86543,-0.30318 h -1.02524 c -0.1819,0 -0.32523,0.14883 -0.32523,0.33073 z m 0.65045,-1.21819 v -0.85438 h 0.64491 c 0.31969,0 0.51263,0.14331 0.51263,0.42443 v 0.006 c 0,0.25356 -0.1819,0.42444 -0.49608,0.42444 z m 0,0"
       id="path53243" />
    <path
       inkscape:connector-curvature="0"
       style="fill:#000000;fill-opacity:1;stroke:none;stroke-width:0.35277778"
       d="m 122.49711,110.02381 h 1.65915 c 0.16539,0 0.29214,-0.12678 0.29214,-0.28663 0,-0.15985 -0.12675,-0.29214 -0.29214,-0.29214 h -1.33946 v -0.62288 h 1.13002 c 0.15984,0 0.29213,-0.12677 0.29213,-0.28663 0,-0.16536 -0.13229,-0.29214 -0.29213,-0.29214 h -1.13002 v -0.60083 h 1.32292 c 0.15988,0 0.29217,-0.12678 0.29217,-0.29214 0,-0.15985 -0.13229,-0.29214 -0.29217,-0.29214 h -1.64261 c -0.18189,0 -0.32522,0.14882 -0.32522,0.33073 v 2.30959 c 0,0.1819 0.14333,0.32521 0.32522,0.32521 z m 0,0"
       id="path53235" />
    <path
       inkscape:connector-curvature="0"
       style="fill:#000000;fill-opacity:1;stroke:none;stroke-width:0.35277778"
       d="m 126.36218,110.07342 c 0.47403,0 0.78825,-0.1378 1.05834,-0.36931 0.0551,-0.0551 0.11024,-0.13229 0.11024,-0.23702 0,-0.16537 -0.14333,-0.29766 -0.30868,-0.29766 -0.0772,0 -0.14333,0.0276 -0.19294,0.0717 -0.18739,0.14883 -0.36932,0.23151 -0.64491,0.23151 -0.50712,0 -0.85989,-0.42444 -0.85989,-0.93156 v -0.006 c 0,-0.50711 0.36378,-0.92604 0.85989,-0.92604 0.23149,0 0.42443,0.0772 0.60632,0.21498 0.0496,0.0276 0.10474,0.0606 0.19294,0.0606 0.18189,0 0.32522,-0.1378 0.32522,-0.31419 0,-0.11576 -0.0606,-0.20946 -0.12679,-0.25907 -0.24804,-0.1819 -0.54571,-0.30317 -0.99218,-0.30317 -0.9095,0 -1.54341,0.68902 -1.54341,1.53238 v 0.011 c 0,0.84887 0.64492,1.52136 1.51585,1.52136 z m 0,0"
       id="path53239" />
    <path
       inkscape:connector-curvature="0"
       style="fill:#000000;fill-opacity:1;stroke:none;stroke-width:0.35277778"
       d="m 125.5853,206.83769 c 0,0.0772 0.0661,0.1378 0.14333,0.1378 0.0772,0 0.1433,-0.0606 0.1433,-0.1378 v -0.43546 h 0.35278 l 0.39137,0.5016 c 0.0332,0.0441 0.0717,0.0717 0.13779,0.0717 0.0661,0 0.13229,-0.0496 0.13229,-0.13229 0,-0.0441 -0.0166,-0.0717 -0.0441,-0.10473 l -0.30868,-0.38585 c 0.21499,-0.0717 0.36382,-0.226 0.36382,-0.47956 v -0.005 c 0,-0.14332 -0.0441,-0.25907 -0.13229,-0.34726 -0.0992,-0.0992 -0.25908,-0.15986 -0.46302,-0.15986 h -0.57326 c -0.0772,0 -0.14334,0.0606 -0.14334,0.14332 z m 0.28663,-0.68351 v -0.54019 h 0.40791 c 0.20945,0 0.33073,0.0937 0.33073,0.2701 0,0.16536 -0.12678,0.27009 -0.33073,0.27009 z m 0,0"
       id="path53231" />
    <path
       inkscape:connector-curvature="0"
       style="fill:#000000;fill-opacity:1;stroke:none;stroke-width:0.35277778"
       d="m 127.33335,206.83769 c 0,0.0772 0.0662,0.1378 0.14329,0.1378 0.0772,0 0.14334,-0.0606 0.14334,-0.1378 v -1.35048 c 0,-0.0772 -0.0661,-0.1378 -0.14334,-0.1378 -0.0772,0 -0.14329,0.0606 -0.14329,0.1378 z m 0,0"
       id="path53227" />
    <path
       inkscape:connector-curvature="0"
       style="fill:#000000;fill-opacity:1;stroke:none;stroke-width:0.35277778"
       d="m 128.87019,206.99203 c 0.23703,0 0.42993,-0.0827 0.56776,-0.17639 0.0661,-0.0386 0.0992,-0.0992 0.0992,-0.17639 v -0.42995 c 0,-0.0772 -0.0606,-0.14331 -0.1433,-0.14331 h -0.44651 c -0.0661,0 -0.12676,0.0551 -0.12676,0.12678 0,0.0661 0.0606,0.12126 0.12676,0.12126 h 0.31972 v 0.29766 c -0.0992,0.0772 -0.23703,0.12127 -0.39137,0.12127 -0.32523,0 -0.54571,-0.24254 -0.54571,-0.57326 0,-0.30869 0.22602,-0.56776 0.52366,-0.56776 0.17089,0 0.28663,0.0496 0.38587,0.12678 0.0275,0.0165 0.0551,0.0331 0.0882,0.0331 0.0772,0 0.1433,-0.0661 0.1433,-0.14332 0,-0.0551 -0.0332,-0.0937 -0.0606,-0.11576 -0.1433,-0.10472 -0.30868,-0.15985 -0.54568,-0.15985 -0.48507,0 -0.82684,0.38034 -0.82684,0.82683 v 0.006 c 0,0.46853 0.32523,0.82682 0.83234,0.82682 z m 0,0"
       id="path53223" />
    <path
       inkscape:connector-curvature="0"
       style="fill:#000000;fill-opacity:1;stroke:none;stroke-width:0.35277778"
       d="m 129.98468,206.83769 c 0,0.0772 0.0661,0.1378 0.14334,0.1378 0.0772,0 0.14329,-0.0606 0.14329,-0.1378 v -0.55122 h 0.7662 v 0.55122 c 0,0.0772 0.0606,0.1378 0.1378,0.1378 0.0772,0 0.14333,-0.0606 0.14333,-0.1378 v -1.35048 c 0,-0.0772 -0.0661,-0.1378 -0.14333,-0.1378 -0.0771,0 -0.1378,0.0606 -0.1378,0.1378 v 0.54019 h -0.7662 v -0.54019 c 0,-0.0772 -0.0661,-0.1378 -0.14329,-0.1378 -0.0772,0 -0.14334,0.0606 -0.14334,0.1378 z m 0,0"
       id="path53215" />
    <path
       inkscape:connector-curvature="0"
       style="fill:#000000;fill-opacity:1;stroke:none;stroke-width:0.35277778"
       d="m 132.17938,206.83769 c 0,0.0772 0.0661,0.1378 0.14334,0.1378 0.0771,0 0.1433,-0.0606 0.1433,-0.1378 v -1.21819 h 0.39137 c 0.0716,0 0.12679,-0.0606 0.12679,-0.12678 0,-0.0717 -0.0551,-0.13229 -0.12679,-0.13229 h -1.06938 c -0.0717,0 -0.12675,0.0606 -0.12675,0.13229 0,0.0661 0.0551,0.12678 0.12675,0.12678 h 0.39137 z m 0,0"
       id="path53219" />
    <path
       inkscape:connector-curvature="0"
       style="fill:#000000;fill-opacity:1;stroke:none;stroke-width:0.35277778"
       d="m 113.09735,206.82115 c 0,0.0827 0.0661,0.14332 0.14333,0.14332 h 0.8654 c 0.0716,0 0.13229,-0.0551 0.13229,-0.12678 0,-0.0717 -0.0606,-0.13229 -0.13229,-0.13229 h -0.7221 v -1.21819 c 0,-0.0772 -0.0661,-0.1378 -0.1433,-0.1378 -0.0772,0 -0.14333,0.0606 -0.14333,0.1378 z m 0,0"
       id="path53211" />
    <path
       inkscape:connector-curvature="0"
       style="fill:#000000;fill-opacity:1;stroke:none;stroke-width:0.35277778"
       d="m 114.41268,207.16291 c 0,0.0606 0.0496,0.10473 0.11025,0.10473 0.0441,0 0.0772,-0.022 0.0992,-0.0606 l 0.93708,-1.92374 c 0.006,-0.011 0.0109,-0.0331 0.0109,-0.0551 0,-0.0551 -0.0441,-0.10473 -0.1047,-0.10473 -0.0441,0 -0.0827,0.022 -0.0992,0.0661 l -0.94258,1.91821 c -0.006,0.0165 -0.0109,0.0331 -0.0109,0.0551 z m 0,0"
       id="path53203" />
    <path
       inkscape:connector-curvature="0"
       style="fill:#000000;fill-opacity:1;stroke:none;stroke-width:0.35277778"
       d="m 115.85032,206.83769 c 0,0.0772 0.0607,0.1378 0.1378,0.1378 0.0827,0 0.14333,-0.0606 0.14333,-0.1378 v -0.95912 l 0.38583,0.58429 c 0.0332,0.0441 0.0717,0.0717 0.12129,0.0717 0.0496,0 0.0882,-0.0276 0.11575,-0.0717 l 0.39137,-0.5898 v 0.96463 c 0,0.0717 0.0661,0.1378 0.1433,0.1378 0.0772,0 0.14333,-0.0606 0.14333,-0.1378 v -1.34497 c 0,-0.0772 -0.0662,-0.14331 -0.14333,-0.14331 h -0.0332 c -0.0551,0 -0.0937,0.0275 -0.12678,0.0717 l -0.48507,0.76614 -0.49058,-0.76067 c -0.0275,-0.0441 -0.0661,-0.0772 -0.12678,-0.0772 h -0.0332 c -0.0772,0 -0.14333,0.0661 -0.14333,0.14331 z m 0,0"
       id="path53207" />
    <path
       inkscape:connector-curvature="0"
       style="fill:#000000;fill-opacity:1;stroke:none;stroke-width:0.35277778"
       d="m 118.67893,206.99203 c 0.49611,0 0.84335,-0.38034 0.84335,-0.83233 0,-0.452 -0.34174,-0.82683 -0.83785,-0.82683 -0.49057,0 -0.83784,0.37483 -0.83784,0.82683 v 0.005 c 0,0.45199 0.34177,0.82682 0.83234,0.82682 z m 0.006,-0.25907 c -0.31969,0 -0.54568,-0.25907 -0.54568,-0.57326 0,-0.3142 0.22599,-0.56776 0.54018,-0.56776 0.31972,0 0.54571,0.25907 0.54571,0.56776 v 0.005 c 0,0.31419 -0.22049,0.56775 -0.54021,0.56775 z m 0,0"
       id="path53199" />
    <path
       inkscape:connector-curvature="0"
       style="fill:#000000;fill-opacity:1;stroke:none;stroke-width:0.35277778"
       d="m 119.9338,206.83769 c 0,0.0772 0.0661,0.1378 0.14333,0.1378 0.0772,0 0.13779,-0.0606 0.13779,-0.1378 v -1.01975 l 0.82681,1.06936 c 0.0386,0.0496 0.0772,0.0882 0.14333,0.0882 h 0.0109 c 0.0772,0 0.13783,-0.0661 0.13783,-0.14331 v -1.34497 c 0,-0.0772 -0.0606,-0.1378 -0.13783,-0.1378 -0.0771,0 -0.13779,0.0606 -0.13779,0.1378 v 0.98668 l -0.80476,-1.0418 c -0.0386,-0.0496 -0.0772,-0.0827 -0.14333,-0.0827 h -0.0332 c -0.0772,0 -0.14334,0.0661 -0.14334,0.14331 z m 0,0"
       id="path53195" />
    <path
       inkscape:connector-curvature="0"
       style="fill:#000000;fill-opacity:1;fill-rule:nonzero;stroke:none;stroke-width:0.35277778"
       d="m 123.79075,220.93368 c 0,0.22048 -0.18052,0.401 -0.401,0.401 -0.22186,0 -0.401,-0.18052 -0.401,-0.401 0,-0.22187 0.17914,-0.40101 0.401,-0.40101 0.22048,0 0.401,0.17914 0.401,0.40101"
       id="path52817" />
    <path
       inkscape:connector-curvature="0"
       style="fill:#000000;fill-opacity:1;fill-rule:nonzero;stroke:none;stroke-width:0.35277778"
       d="m 120.46691,222.25935 c -0.11712,0 -0.22323,-0.0661 -0.27559,-0.17088 l -1.00185,-2.00367 c -0.0772,-0.15296 -0.0152,-0.33762 0.13783,-0.41478 0.15155,-0.0758 0.33761,-0.0138 0.41339,0.1378 l 0.72622,1.45383 0.72623,-1.45383 c 0.0758,-0.15159 0.26183,-0.2136 0.41342,-0.1378 0.15297,0.0772 0.21499,0.26182 0.13917,0.41478 l -1.00319,2.00367 c -0.0524,0.10473 -0.15847,0.17088 -0.27563,0.17088"
       id="path52819" />
    <path
       inkscape:connector-curvature="0"
       style="fill:#000000;fill-opacity:1;fill-rule:nonzero;stroke:none;stroke-width:0.35277778"
       d="m 125.97219,222.25935 c -0.11575,0 -0.22324,-0.0661 -0.27563,-0.17088 l -1.00182,-2.00367 c -0.0758,-0.15296 -0.0152,-0.33762 0.1378,-0.41478 0.15159,-0.0758 0.33764,-0.0138 0.41342,0.1378 l 0.72623,1.45383 0.7276,-1.45383 c 0.0758,-0.15159 0.26046,-0.2136 0.41342,-0.1378 0.15159,0.0772 0.21357,0.26182 0.1378,0.41478 l -1.00182,2.00367 c -0.0524,0.10473 -0.15988,0.17088 -0.277,0.17088"
       id="path52821" />
    <path
       inkscape:connector-curvature="0"
       style="fill:#000000;fill-opacity:1;fill-rule:nonzero;stroke:none;stroke-width:0.35277778"
       d="m 123.36908,222.25935 c -0.72211,0 -1.31054,-0.58843 -1.31054,-1.31052 0,-0.72347 0.58843,-1.31051 1.31054,-1.31051 0.28663,0 0.55947,0.0909 0.78687,0.26183 0.13642,0.10197 0.16397,0.29627 0.062,0.43132 -0.10333,0.13643 -0.29627,0.16399 -0.43269,0.062 -0.1199,-0.0909 -0.26458,-0.13918 -0.41617,-0.13918 -0.3817,0 -0.69317,0.31144 -0.69317,0.69453 0,0.3831 0.31147,0.69316 0.69317,0.69316 0.15159,0 0.29627,-0.0469 0.41617,-0.13781 0.13642,-0.10197 0.32936,-0.0758 0.43269,0.0606 0.10198,0.13642 0.0744,0.33073 -0.062,0.4327 -0.2274,0.17088 -0.50024,0.26183 -0.78687,0.26183"
       id="path52823" />
    <path
       inkscape:connector-curvature="0"
       style="fill:#000000;fill-opacity:1;stroke:none;stroke-width:0.35277778"
       d="m 114.90498,191.81846 c 0.23703,0 0.42993,-0.0827 0.56776,-0.17639 0.0661,-0.0386 0.0992,-0.0992 0.0992,-0.17639 v -0.42995 c 0,-0.0772 -0.0606,-0.14331 -0.1433,-0.14331 h -0.44651 c -0.0662,0 -0.12676,0.0551 -0.12676,0.12678 0,0.0661 0.0606,0.12126 0.12676,0.12126 h 0.31972 v 0.29766 c -0.0992,0.0772 -0.23703,0.12127 -0.39137,0.12127 -0.32523,0 -0.54572,-0.24254 -0.54572,-0.57326 0,-0.30869 0.22603,-0.56776 0.52367,-0.56776 0.17088,0 0.28663,0.0496 0.38587,0.12678 0.0275,0.0165 0.0551,0.0331 0.0882,0.0331 0.0772,0 0.1433,-0.0662 0.1433,-0.14331 0,-0.0551 -0.0332,-0.0937 -0.0606,-0.11576 -0.1433,-0.10473 -0.30868,-0.15985 -0.54568,-0.15985 -0.48507,0 -0.82684,0.38034 -0.82684,0.82682 v 0.006 c 0,0.46854 0.32522,0.82683 0.83234,0.82683 z m 0,0"
       id="path53167" />
    <path
       inkscape:connector-curvature="0"
       style="fill:#000000;fill-opacity:1;stroke:none;stroke-width:0.35277778"
       d="m 115.87597,191.66963 c 0,0.0772 0.0606,0.13229 0.13229,0.13229 0.0606,0 0.11024,-0.0331 0.13229,-0.0882 l 0.13229,-0.30868 h 0.78275 l 0.13229,0.29765 c 0.0219,0.0606 0.0661,0.0992 0.13779,0.0992 0.0716,0 0.1323,-0.0606 0.1323,-0.13229 0,-0.022 -0.006,-0.0441 -0.0166,-0.0606 l -0.59531,-1.33394 c -0.0332,-0.0661 -0.0882,-0.11024 -0.17088,-0.11024 h -0.0109 c -0.0827,0 -0.13779,0.0441 -0.17088,0.11024 l -0.59532,1.33395 c -0.0109,0.022 -0.0219,0.0441 -0.0219,0.0606 z m 0.50712,-0.51814 0.28113,-0.64492 0.28112,0.64492 z m 0,0"
       id="path53159" />
    <path
       inkscape:connector-curvature="0"
       style="fill:#000000;fill-opacity:1;stroke:none;stroke-width:0.35277778"
       d="m 118.0228,191.66412 c 0,0.0772 0.0661,0.1378 0.14333,0.1378 0.0772,0 0.1433,-0.0606 0.1433,-0.1378 v -1.21819 h 0.39137 c 0.0717,0 0.12679,-0.0606 0.12679,-0.12678 0,-0.0717 -0.0551,-0.13229 -0.12679,-0.13229 h -1.06937 c -0.0716,0 -0.12676,0.0606 -0.12676,0.13229 0,0.0661 0.0551,0.12678 0.12676,0.12678 h 0.39137 z m 0,0"
       id="path53163" />
    <path
       inkscape:connector-curvature="0"
       style="fill:#000000;fill-opacity:1;stroke:none;stroke-width:0.35277778"
       d="m 119.3092,191.7909 h 0.94809 c 0.0662,0 0.12676,-0.0551 0.12676,-0.12678 0,-0.0661 -0.0606,-0.12678 -0.12676,-0.12678 h -0.80479 v -0.42995 h 0.68901 c 0.0662,0 0.12679,-0.0551 0.12679,-0.12126 0,-0.0717 -0.0606,-0.1323 -0.12679,-0.1323 h -0.68901 v -0.41341 h 0.79375 c 0.0661,0 0.12129,-0.0551 0.12129,-0.12678 0,-0.0717 -0.0551,-0.12678 -0.12129,-0.12678 h -0.93705 c -0.0772,0 -0.14333,0.0606 -0.14333,0.14332 v 1.3174 c 0,0.0827 0.0661,0.14332 0.14333,0.14332 z m 0,0"
       id="path53155" />
    <path
       inkscape:connector-curvature="0"
       style="fill:#000000;fill-opacity:1;stroke:none;stroke-width:0.35277778"
       d="m 126.89579,191.66412 c 0,0.0772 0.0661,0.1378 0.14334,0.1378 0.0772,0 0.1433,-0.0606 0.1433,-0.1378 v -1.21819 h 0.39137 c 0.0716,0 0.12679,-0.0606 0.12679,-0.12678 0,-0.0717 -0.0551,-0.13229 -0.12679,-0.13229 h -1.06938 c -0.0716,0 -0.12675,0.0606 -0.12675,0.13229 0,0.0661 0.0551,0.12678 0.12675,0.12678 h 0.39137 z m 0,0"
       id="path53135" />
    <path
       inkscape:connector-curvature="0"
       style="fill:#000000;fill-opacity:1;stroke:none;stroke-width:0.35277778"
       d="m 128.03992,191.66412 c 0,0.0772 0.0661,0.1378 0.14334,0.1378 0.0772,0 0.1433,-0.0606 0.1433,-0.1378 v -0.43546 h 0.35277 l 0.39138,0.5016 c 0.0332,0.0441 0.0717,0.0717 0.13779,0.0717 0.0662,0 0.13229,-0.0496 0.13229,-0.13229 0,-0.0441 -0.0166,-0.0717 -0.0441,-0.10473 l -0.30868,-0.38585 c 0.21499,-0.0717 0.36382,-0.226 0.36382,-0.47956 v -0.005 c 0,-0.14331 -0.0441,-0.25907 -0.13229,-0.34726 -0.0992,-0.0992 -0.25908,-0.15986 -0.46302,-0.15986 h -0.57326 c -0.0772,0 -0.14334,0.0606 -0.14334,0.14332 z m 0.28664,-0.68351 v -0.54019 h 0.40791 c 0.20945,0 0.33073,0.0937 0.33073,0.2701 0,0.16536 -0.12679,0.27009 -0.33073,0.27009 z m 0,0"
       id="path53139" />
    <path
       inkscape:connector-curvature="0"
       style="fill:#000000;fill-opacity:1;stroke:none;stroke-width:0.35277778"
       d="m 129.7878,191.66412 c 0,0.0772 0.0661,0.1378 0.1433,0.1378 0.0772,0 0.14333,-0.0606 0.14333,-0.1378 v -1.35048 c 0,-0.0772 -0.0661,-0.1378 -0.14333,-0.1378 -0.0771,0 -0.1433,0.0606 -0.1433,0.1378 z m 0,0"
       id="path53131" />
    <path
       inkscape:connector-curvature="0"
       style="fill:#000000;fill-opacity:1;stroke:none;stroke-width:0.35277778"
       d="m 131.32467,191.81846 c 0.23703,0 0.42997,-0.0827 0.56776,-0.17639 0.0662,-0.0386 0.0992,-0.0992 0.0992,-0.17639 v -0.42995 c 0,-0.0772 -0.0606,-0.14331 -0.14329,-0.14331 h -0.44648 c -0.0661,0 -0.12679,0.0551 -0.12679,0.12678 0,0.0661 0.0606,0.12126 0.12679,0.12126 h 0.31969 v 0.29766 c -0.0992,0.0772 -0.23703,0.12127 -0.39137,0.12127 -0.3252,0 -0.54568,-0.24254 -0.54568,-0.57326 0,-0.30869 0.22599,-0.56776 0.52363,-0.56776 0.17088,0 0.28663,0.0496 0.38587,0.12678 0.0275,0.0165 0.0551,0.0331 0.0882,0.0331 0.0771,0 0.14329,-0.0662 0.14329,-0.14331 0,-0.0551 -0.0332,-0.0937 -0.0606,-0.11576 -0.14333,-0.10473 -0.30868,-0.15985 -0.54571,-0.15985 -0.48507,0 -0.82684,0.38034 -0.82684,0.82682 v 0.006 c 0,0.46854 0.32523,0.82683 0.83235,0.82683 z m 0,0"
       id="path53127" />
    <path
       inkscape:connector-curvature="0"
       style="fill:#000000;fill-opacity:1;stroke:none;stroke-width:0.35277778"
       d="m 121.54264,161.08029 h 0.42996 c 0.0717,0 0.1378,-0.0606 0.1378,-0.13229 0,-0.0772 -0.0661,-0.1378 -0.1378,-0.1378 h -0.42996 c -0.0772,0 -0.1378,0.0606 -0.1378,0.1378 0,0.0717 0.0606,0.13229 0.1378,0.13229 z m 0,0"
       id="path53107" />
    <path
       inkscape:connector-curvature="0"
       style="fill:#000000;fill-opacity:1;stroke:none;stroke-width:0.35277778"
       d="m 122.28488,161.51575 c 0,0.0827 0.0661,0.1323 0.14884,0.1323 h 0.9095 c 0.0717,0 0.12679,-0.0551 0.12679,-0.12127 0,-0.0717 -0.0551,-0.12678 -0.12679,-0.12678 h -0.65042 l 0.33073,-0.27561 c 0.28663,-0.23151 0.41892,-0.36931 0.41892,-0.62287 0,-0.28663 -0.21498,-0.47956 -0.52916,-0.47956 -0.25358,0 -0.40238,0.0937 -0.53467,0.25907 -0.0166,0.022 -0.0275,0.0551 -0.0275,0.0827 0,0.0717 0.0551,0.13229 0.12679,0.13229 0.0441,0 0.0772,-0.022 0.0992,-0.0441 0.0992,-0.12126 0.18739,-0.18189 0.31418,-0.18189 0.14884,0 0.25908,0.0937 0.25908,0.25355 0,0.14332 -0.0772,0.24805 -0.29767,0.42995 l -0.49608,0.41893 c -0.0496,0.0441 -0.0717,0.0882 -0.0717,0.14331 z m 0,0"
       id="path53111" />
    <path
       inkscape:connector-curvature="0"
       style="fill:#000000;fill-opacity:1;stroke:none;stroke-width:0.35277778"
       d="m 124.5294,161.52678 c 0,0.0772 0.0606,0.13229 0.13779,0.13229 0.0771,0 0.13229,-0.0551 0.13229,-0.13229 v -0.23703 h 0.12679 c 0.0661,0 0.11575,-0.0496 0.11575,-0.11575 0,-0.0661 -0.0496,-0.11576 -0.11575,-0.11576 h -0.12679 v -0.90399 c 0,-0.0772 -0.0606,-0.13229 -0.13229,-0.13229 -0.0827,0 -0.12679,0.0275 -0.17639,0.0882 l -0.75515,0.89848 c -0.0386,0.0441 -0.0606,0.0937 -0.0606,0.14883 0,0.0772 0.0606,0.13229 0.13779,0.13229 h 0.7166 z m -0.52367,-0.46854 0.52367,-0.63941 v 0.63941 z m 0,0"
       id="path53103" />
    <path
       inkscape:connector-curvature="0"
       style="fill:#000000;fill-opacity:1;stroke:none;stroke-width:0.35277778"
       d="m 121.83393,155.95532 h 0.42996 c 0.0716,0 0.1378,-0.0606 0.1378,-0.13229 0,-0.0772 -0.0662,-0.13781 -0.1378,-0.13781 h -0.42996 c -0.0771,0 -0.1378,0.0606 -0.1378,0.13781 0,0.0717 0.0606,0.13229 0.1378,0.13229 z m 0,0"
       id="path53095" />
    <path
       inkscape:connector-curvature="0"
       style="fill:#000000;fill-opacity:1;stroke:none;stroke-width:0.35277778"
       d="m 122.90775,156.39629 c 0,0.0772 0.0662,0.1378 0.13783,0.1378 0.0827,0 0.1433,-0.0606 0.1433,-0.1378 v -1.3615 c 0,-0.0772 -0.0606,-0.1378 -0.1433,-0.1378 -0.0441,0 -0.0827,0.011 -0.13783,0.0276 l -0.24254,0.0772 c -0.0606,0.0165 -0.0992,0.0606 -0.0992,0.12126 0,0.0606 0.0606,0.11576 0.12679,0.11576 0.0109,0 0.0332,0 0.0496,-0.006 l 0.16535,-0.0496 z m 0,0"
       id="path53099" />
    <path
       inkscape:connector-curvature="0"
       style="fill:#000000;fill-opacity:1;stroke:none;stroke-width:0.35277778"
       d="m 123.55612,156.39077 c 0,0.0827 0.0661,0.1323 0.14884,0.1323 h 0.90949 c 0.0717,0 0.12679,-0.0551 0.12679,-0.12127 0,-0.0717 -0.0551,-0.12678 -0.12679,-0.12678 h -0.65041 l 0.33072,-0.27561 c 0.28664,-0.23151 0.41893,-0.36931 0.41893,-0.62287 0,-0.28663 -0.21498,-0.47955 -0.52917,-0.47955 -0.25358,0 -0.40238,0.0937 -0.53467,0.25906 -0.0166,0.022 -0.0275,0.0551 -0.0275,0.0827 0,0.0717 0.0551,0.1323 0.12679,0.1323 0.0441,0 0.0772,-0.022 0.0992,-0.0441 0.0992,-0.12127 0.18739,-0.18191 0.31418,-0.18191 0.14884,0 0.25908,0.0937 0.25908,0.25356 0,0.14332 -0.0772,0.24805 -0.29767,0.42995 l -0.49608,0.41892 c -0.0496,0.0441 -0.0717,0.0882 -0.0717,0.14332 z m 0,0"
       id="path53091" />
    <path
       inkscape:connector-curvature="0"
       style="fill:#000000;fill-opacity:1;stroke:none;stroke-width:0.35277778"
       d="m 122.19394,150.83033 h 0.42996 c 0.0716,0 0.1378,-0.0606 0.1378,-0.13229 0,-0.0772 -0.0662,-0.1378 -0.1378,-0.1378 h -0.42996 c -0.0772,0 -0.1378,0.0606 -0.1378,0.1378 0,0.0717 0.0606,0.13229 0.1378,0.13229 z m 0,0"
       id="path53083" />
    <path
       inkscape:connector-curvature="0"
       style="fill:#000000;fill-opacity:1;stroke:none;stroke-width:0.35277778"
       d="m 123.7668,151.42565 c 0.33623,0 0.59531,-0.226 0.59531,-0.5457 v -0.006 c 0,-0.31971 -0.24804,-0.50161 -0.55672,-0.50161 -0.19293,0 -0.30318,0.0772 -0.38587,0.15985 0.0109,-0.29214 0.14884,-0.51263 0.38587,-0.51263 0.10471,0 0.1874,0.0331 0.27559,0.0937 0.0219,0.011 0.0441,0.0165 0.0717,0.0165 0.0717,0 0.13229,-0.0551 0.13229,-0.12678 0,-0.0606 -0.0275,-0.0937 -0.0717,-0.12127 -0.10474,-0.0717 -0.23703,-0.11575 -0.39687,-0.11575 -0.45752,0 -0.68901,0.38034 -0.68901,0.87092 v 0.006 c 0,0.32522 0.0716,0.49058 0.19293,0.61185 0.11024,0.11024 0.24804,0.17088 0.44648,0.17088 z m -0.006,-0.24805 c -0.19844,0 -0.33073,-0.12127 -0.33073,-0.28663 0,-0.15434 0.12675,-0.28663 0.32519,-0.28663 0.19844,0 0.32522,0.12126 0.32522,0.28111 v 0.006 c 0,0.16537 -0.12124,0.28664 -0.31968,0.28664 z m 0,0"
       id="path53087" />
    <path
       inkscape:connector-curvature="0"
       style="fill:#000000;fill-opacity:1;stroke:none;stroke-width:0.35277778"
       d="m 122.29712,145.70536 h 0.42997 c 0.0716,0 0.1378,-0.0606 0.1378,-0.13229 0,-0.0772 -0.0662,-0.1378 -0.1378,-0.1378 h -0.42997 c -0.0772,0 -0.13779,0.0606 -0.13779,0.1378 0,0.0717 0.0606,0.13229 0.13779,0.13229 z m 0,0"
       id="path53075" />
    <path
       inkscape:connector-curvature="0"
       style="fill:#000000;fill-opacity:1;stroke:none;stroke-width:0.35277778"
       d="m 123.6924,146.30067 c 0.33623,0 0.56225,-0.21497 0.56225,-0.50712 v -0.006 c 0,-0.29765 -0.22602,-0.41892 -0.46856,-0.45199 l 0.37483,-0.39137 c 0.0496,-0.0496 0.0827,-0.0882 0.0827,-0.15434 0,-0.0717 -0.0606,-0.12127 -0.1433,-0.12127 h -0.82134 c -0.0661,0 -0.12124,0.0551 -0.12124,0.12127 0,0.0662 0.0551,0.12127 0.12124,0.12127 h 0.58431 l -0.37483,0.40239 c -0.0441,0.0441 -0.0606,0.0772 -0.0606,0.11575 0,0.0662 0.0551,0.12127 0.12129,0.12127 h 0.0606 c 0.22049,0 0.36932,0.0882 0.36932,0.24805 v 0.005 c 0,0.14331 -0.12125,0.24253 -0.28113,0.24253 -0.1488,0 -0.26458,-0.0551 -0.36378,-0.15434 -0.0219,-0.022 -0.0551,-0.0386 -0.0937,-0.0386 -0.0717,0 -0.13783,0.0662 -0.13783,0.1378 0,0.0386 0.0219,0.0772 0.0496,0.0992 0.12675,0.12679 0.30868,0.20946 0.54017,0.20946 z m 0,0"
       id="path53079" />
    <path
       inkscape:connector-curvature="0"
       style="fill:#000000;fill-opacity:1;stroke:none;stroke-width:0.35277778"
       d="m 123.31739,141.17569 c 0.42447,0 0.70006,-0.36932 0.70006,-0.83234 0,-0.46302 -0.27559,-0.82682 -0.69452,-0.82682 -0.42446,0 -0.70005,0.36931 -0.70005,0.82682 v 0.006 c 0,0.45752 0.27559,0.82683 0.69451,0.82683 z m 0.006,-0.25356 c -0.24807,0 -0.40791,-0.25907 -0.40791,-0.57878 0,-0.3197 0.15434,-0.57326 0.40238,-0.57326 0.24807,0 0.41342,0.25907 0.41342,0.57326 v 0.006 c 0,0.3142 -0.15985,0.57327 -0.40789,0.57327 z m 0,0"
       id="path53071" />
    <path
       inkscape:connector-curvature="0"
       style="fill:#000000;fill-opacity:1;stroke:none;stroke-width:0.35277778"
       d="m 122.40719,135.65935 c 0,0.0772 0.0606,0.13229 0.13229,0.13229 0.0717,0 0.13229,-0.0551 0.13229,-0.13229 v -0.31971 h 0.32523 c 0.0661,0 0.12675,-0.0551 0.12675,-0.12127 0,-0.0717 -0.0606,-0.12678 -0.12675,-0.12678 h -0.32523 v -0.3197 c 0,-0.0717 -0.0606,-0.13229 -0.13229,-0.13229 -0.0716,0 -0.13229,0.0606 -0.13229,0.13229 v 0.3197 h -0.32522 c -0.0661,0 -0.12679,0.0551 -0.12679,0.12678 0,0.0661 0.0606,0.12127 0.12679,0.12127 h 0.32522 z m 0,0"
       id="path53067" />
    <path
       inkscape:connector-curvature="0"
       style="fill:#000000;fill-opacity:1;stroke:none;stroke-width:0.35277778"
       d="m 123.92509,136.05071 c 0.33623,0 0.56226,-0.21497 0.56226,-0.50712 v -0.005 c 0,-0.29766 -0.22603,-0.41892 -0.46856,-0.45199 l 0.37482,-0.39137 c 0.0496,-0.0496 0.0827,-0.0882 0.0827,-0.15434 0,-0.0717 -0.0606,-0.12127 -0.1433,-0.12127 h -0.82133 c -0.0661,0 -0.12125,0.0551 -0.12125,0.12127 0,0.0661 0.0551,0.12127 0.12125,0.12127 h 0.5843 l -0.37482,0.40239 c -0.0441,0.0441 -0.0606,0.0772 -0.0606,0.11575 0,0.0661 0.0551,0.12127 0.12128,0.12127 h 0.0606 c 0.22049,0 0.36932,0.0882 0.36932,0.24805 v 0.006 c 0,0.14331 -0.12125,0.24253 -0.28112,0.24253 -0.14881,0 -0.26459,-0.0551 -0.36379,-0.15434 -0.0219,-0.022 -0.0551,-0.0386 -0.0937,-0.0386 -0.0717,0 -0.13783,0.0661 -0.13783,0.1378 0,0.0386 0.0219,0.0772 0.0496,0.0992 0.12675,0.12678 0.30868,0.20946 0.54017,0.20946 z m 0,0"
       id="path53063" />
    <path
       inkscape:connector-curvature="0"
       style="fill:none;stroke:#000000;stroke-width:0.23495002;stroke-linecap:round;stroke-linejoin:round;stroke-miterlimit:10;stroke-opacity:1"
       d="m 113.05991,186.67151 h 20.32055"
       id="path52995" />
  </g>
  <g
     inkscape:groupmode="layer"
     id="layer2"
     inkscape:label="components"
     style="display:none">
    <circle
       style="opacity:1;vector-effect:none;fill:#ff0000;fill-opacity:1;fill-rule:evenodd;stroke:none;stroke-width:1;stroke-linecap:butt;stroke-linejoin:miter;stroke-miterlimit:4;stroke-dasharray:none;stroke-dashoffset:0;stroke-opacity:1;paint-order:normal"
       id="path53629"
       cx="12.7"
       cy="21.417471"
       r="2" />
    <circle
       r="2"
       cy="73.623795"
       cx="12.699829"
       id="circle54436"
       style="opacity:1;vector-effect:none;fill:#ff0000;fill-opacity:1;fill-rule:evenodd;stroke:none;stroke-width:1;stroke-linecap:butt;stroke-linejoin:miter;stroke-miterlimit:4;stroke-dasharray:none;stroke-dashoffset:0;stroke-opacity:1;paint-order:normal" />
    <circle
       style="opacity:1;vector-effect:none;fill:#00ff00;fill-opacity:1;fill-rule:evenodd;stroke:none;stroke-width:1;stroke-linecap:butt;stroke-linejoin:miter;stroke-miterlimit:4;stroke-dasharray:none;stroke-dashoffset:0;stroke-opacity:1;paint-order:normal"
       id="circle54438"
       cx="6.6965852"
       cy="97.252983"
       r="2" />
    <circle
       r="2"
       cy="97.252983"
       cx="18.70274"
       id="circle54440"
       style="opacity:1;vector-effect:none;fill:#00ff00;fill-opacity:1;fill-rule:evenodd;stroke:none;stroke-width:1;stroke-linecap:butt;stroke-linejoin:miter;stroke-miterlimit:4;stroke-dasharray:none;stroke-dashoffset:0;stroke-opacity:1;paint-order:normal" />
    <circle
       style="opacity:1;vector-effect:none;fill:#00ff00;fill-opacity:1;fill-rule:evenodd;stroke:none;stroke-width:1;stroke-linecap:butt;stroke-linejoin:miter;stroke-miterlimit:4;stroke-dasharray:none;stroke-dashoffset:0;stroke-opacity:1;paint-order:normal"
       id="circle54442"
       cx="6.6958799"
       cy="112.25293"
       r="2" />
    <circle
       r="2"
       cy="112.25293"
       cx="18.70274"
       id="circle54444"
       style="opacity:1;vector-effect:none;fill:#00ff00;fill-opacity:1;fill-rule:evenodd;stroke:none;stroke-width:1;stroke-linecap:butt;stroke-linejoin:miter;stroke-miterlimit:4;stroke-dasharray:none;stroke-dashoffset:0;stroke-opacity:1;paint-order:normal" />
    <circle
       r="2"
       cy="34.758255"
       cx="6.699985"
       id="circle54446"
       style="opacity:1;vector-effect:none;fill:#ff00ff;fill-opacity:1;fill-rule:evenodd;stroke:none;stroke-width:1;stroke-linecap:butt;stroke-linejoin:miter;stroke-miterlimit:4;stroke-dasharray:none;stroke-dashoffset:0;stroke-opacity:1;paint-order:normal" />
    <circle
       style="opacity:1;vector-effect:none;fill:#ff00ff;fill-opacity:1;fill-rule:evenodd;stroke:none;stroke-width:1;stroke-linecap:butt;stroke-linejoin:miter;stroke-miterlimit:4;stroke-dasharray:none;stroke-dashoffset:0;stroke-opacity:1;paint-order:normal"
       id="circle54448"
       cx="18.699936"
       cy="34.758255"
       r="2" />
    <circle
       style="opacity:1;vector-effect:none;fill:#ff00ff;fill-opacity:1;fill-rule:evenodd;stroke:none;stroke-width:1;stroke-linecap:butt;stroke-linejoin:miter;stroke-miterlimit:4;stroke-dasharray:none;stroke-dashoffset:0;stroke-opacity:1;paint-order:normal"
       id="circle54450"
       cx="6.699985"
       cy="39.883869"
       r="2" />
    <circle
       r="2"
       cy="39.883869"
       cx="18.699936"
       id="circle54452"
       style="opacity:1;vector-effect:none;fill:#ff00ff;fill-opacity:1;fill-rule:evenodd;stroke:none;stroke-width:1;stroke-linecap:butt;stroke-linejoin:miter;stroke-miterlimit:4;stroke-dasharray:none;stroke-dashoffset:0;stroke-opacity:1;paint-order:normal" />
    <circle
       r="2"
       cy="45.008793"
       cx="6.699985"
       id="circle54454"
       style="opacity:1;vector-effect:none;fill:#ff00ff;fill-opacity:1;fill-rule:evenodd;stroke:none;stroke-width:1;stroke-linecap:butt;stroke-linejoin:miter;stroke-miterlimit:4;stroke-dasharray:none;stroke-dashoffset:0;stroke-opacity:1;paint-order:normal" />
    <circle
       style="opacity:1;vector-effect:none;fill:#ff00ff;fill-opacity:1;fill-rule:evenodd;stroke:none;stroke-width:1;stroke-linecap:butt;stroke-linejoin:miter;stroke-miterlimit:4;stroke-dasharray:none;stroke-dashoffset:0;stroke-opacity:1;paint-order:normal"
       id="circle54456"
       cx="18.699936"
       cy="45.008793"
       r="2" />
    <circle
       style="opacity:1;vector-effect:none;fill:#ff00ff;fill-opacity:1;fill-rule:evenodd;stroke:none;stroke-width:1;stroke-linecap:butt;stroke-linejoin:miter;stroke-miterlimit:4;stroke-dasharray:none;stroke-dashoffset:0;stroke-opacity:1;paint-order:normal"
       id="circle54458"
       cx="6.699985"
       cy="50.13372"
       r="2" />
    <circle
       r="2"
       cy="50.13372"
       cx="18.699936"
       id="circle54460"
       style="opacity:1;vector-effect:none;fill:#ff00ff;fill-opacity:1;fill-rule:evenodd;stroke:none;stroke-width:1;stroke-linecap:butt;stroke-linejoin:miter;stroke-miterlimit:4;stroke-dasharray:none;stroke-dashoffset:0;stroke-opacity:1;paint-order:normal" />
    <circle
       r="2"
       cy="55.258644"
       cx="6.699985"
       id="circle54462"
       style="opacity:1;vector-effect:none;fill:#ff00ff;fill-opacity:1;fill-rule:evenodd;stroke:none;stroke-width:1;stroke-linecap:butt;stroke-linejoin:miter;stroke-miterlimit:4;stroke-dasharray:none;stroke-dashoffset:0;stroke-opacity:1;paint-order:normal" />
    <circle
       style="opacity:1;vector-effect:none;fill:#ff00ff;fill-opacity:1;fill-rule:evenodd;stroke:none;stroke-width:1;stroke-linecap:butt;stroke-linejoin:miter;stroke-miterlimit:4;stroke-dasharray:none;stroke-dashoffset:0;stroke-opacity:1;paint-order:normal"
       id="circle54464"
       cx="18.699936"
       cy="55.258644"
       r="2" />
    <circle
       style="opacity:1;vector-effect:none;fill:#ff00ff;fill-opacity:1;fill-rule:evenodd;stroke:none;stroke-width:1;stroke-linecap:butt;stroke-linejoin:miter;stroke-miterlimit:4;stroke-dasharray:none;stroke-dashoffset:0;stroke-opacity:1;paint-order:normal"
       id="circle54466"
       cx="6.699985"
       cy="60.383564"
       r="2" />
    <circle
       r="2"
       cy="60.383564"
       cx="18.699936"
       id="circle54468"
       style="opacity:1;vector-effect:none;fill:#ff00ff;fill-opacity:1;fill-rule:evenodd;stroke:none;stroke-width:1;stroke-linecap:butt;stroke-linejoin:miter;stroke-miterlimit:4;stroke-dasharray:none;stroke-dashoffset:0;stroke-opacity:1;paint-order:normal" />
    <circle
       r="2"
       cy="73.62394"
       cx="12.69943"
       id="circle54470"
       style="opacity:1;vector-effect:none;fill:#ff00ff;fill-opacity:1;fill-rule:evenodd;stroke:none;stroke-width:1;stroke-linecap:butt;stroke-linejoin:miter;stroke-miterlimit:4;stroke-dasharray:none;stroke-dashoffset:0;stroke-opacity:1;paint-order:normal" />
  </g>
</svg>
