<?xml version="1.0" encoding="UTF-8" standalone="no"?>
<svg
   width="75"
   height="380"
   viewBox="0 0 75 380"
   version="1.1"
   id="svg136"
   sodipodi:docname="REC.svg"
   inkscape:version="1.2.1 (9c6d41e410, 2022-07-14)"
   xmlns:inkscape="http://www.inkscape.org/namespaces/inkscape"
   xmlns:sodipodi="http://sodipodi.sourceforge.net/DTD/sodipodi-0.dtd"
   xmlns="http://www.w3.org/2000/svg"
   xmlns:svg="http://www.w3.org/2000/svg">
  <sodipodi:namedview
     id="namedview138"
     pagecolor="#ffffff"
     bordercolor="#000000"
     borderopacity="0.25"
     inkscape:showpageshadow="2"
     inkscape:pageopacity="0.0"
     inkscape:pagecheckerboard="0"
     inkscape:deskcolor="#d1d1d1"
     showgrid="false"
     inkscape:zoom="2.1815789"
     inkscape:cx="37.816647"
     inkscape:cy="190.22919"
     inkscape:window-width="1920"
     inkscape:window-height="1009"
     inkscape:window-x="-8"
     inkscape:window-y="-8"
     inkscape:window-maximized="1"
     inkscape:current-layer="uuid-62b31dbe-085f-416d-8714-344fbc90ca03" />
  <defs
     id="defs7">
    <linearGradient
       id="uuid-ed721487-a4ce-439a-b44b-bbef8edc33f2"
       x1="37.5"
       y1="-.00001"
       x2="37.5"
       y2="379.99999"
       gradientUnits="userSpaceOnUse">
      <stop
         offset="0"
         stop-color="#ebebeb"
         id="stop2" />
      <stop
         offset="1"
         stop-color="#e1e1e1"
         id="stop4" />
    </linearGradient>
  </defs>
  <g
     id="uuid-c171d9ee-df7b-4d79-a944-adfcdcbfebf0"
     data-name="FND BG">
    <rect
       y="-.00001"
       width="75"
       height="380"
       fill="url(#uuid-ed721487-a4ce-439a-b44b-bbef8edc33f2)"
       id="rect9" />
  </g>
  <g
     id="uuid-7c176a28-7471-48a2-863f-8021d6e1eb89"
     data-name="FND GRAPH">
    <g
       id="g20">
      <circle
         cx="38.81127"
         cy="175.41975"
         r="26.48818"
         fill="none"
         isolation="isolate"
         opacity=".69"
         id="circle12" />
      <path
         d="m49.60949,193.52241c6.2955-3.78272,10.15833-10.61025,10.15833-17.95479,0-11.491-9.45566-20.94666-20.94666-20.94666s-20.94666,9.45566-20.94666,20.94666c0,7.39639,3.91756,14.2646,10.28394,18.02967"
         fill="none"
         stroke="#1f1f1f"
         stroke-linecap="round"
         stroke-miterlimit="10"
         stroke-width=".8"
         id="path14" />
      <line
         x1="49.60949"
         y1="193.52241"
         x2="38.81127"
         y2="175.41975"
         fill="none"
         id="line16" />
      <line
         x1="38.82117"
         y1="154.62095"
         x2="38.82117"
         y2="168.04254"
         fill="none"
         stroke="#1f1f1f"
         stroke-linecap="round"
         stroke-miterlimit="10"
         stroke-width=".8"
         id="line18" />
    </g>
    <line
       x1="20.57691"
       y1="285.99999"
       x2="56.08296"
       y2="285.99999"
       fill="none"
       stroke="#1f1f1f"
       stroke-linecap="round"
       stroke-linejoin="round"
       stroke-width=".8"
       id="line22" />
    <g
       id="g32">
      <circle
         cx="38.00165"
         cy="355.831"
         r="1.18571"
         fill="#1f1f1f"
         id="circle24" />
      <path
         d="m29.35927,359.75297c-.34551,0-.66126-.1952-.8158-.50419l-2.96428-5.92856c-.22526-.45057-.04266-.99844.40794-1.2237.45008-.22535.99831-.04271,1.22366.4079l2.14848,4.29696,2.14848-4.29696c.22526-.45057.77314-.63325,1.22366-.4079.45061.22526.63321.77314.40794,1.2237l-2.96428,5.92856c-.15454.30899-.47029.50419-.8158.50419Z"
         fill="#1f1f1f"
         id="path26" />
      <path
         d="m45.64073,359.75297c-.34551,0-.66126-.1952-.8158-.50419l-2.96428-5.92856c-.22526-.45057-.04266-.99844.40794-1.2237.45016-.22535.9984-.04271,1.22366.4079l2.14848,4.29696,2.14848-4.29696c.22526-.45057.77305-.63325,1.22366-.4079.45061.22526.63321.77314.40794,1.2237l-2.96428,5.92856c-.15454.30899-.47029.50419-.8158.50419Z"
         fill="#1f1f1f"
         id="path28" />
      <path
         d="m37.94242,359.75297c-2.13744,0-3.87637-1.73893-3.87637-3.87637s1.73893-3.87637,3.87637-3.87637c.84653,0,1.65102.26819,2.32653.77554.40278.30253.48401.87428.18153,1.27705-.30248.40273-.87432.48401-1.2771.18148-.357-.26815-.78267-.4099-1.23096-.4099-1.13156,0-2.05219.92059-2.05219,2.05219s.92064,2.05219,2.05219,2.05219c.44829,0,.87396-.14176,1.23096-.4099.40269-.30271.97444-.22125,1.2771.18148.30248.40278.22125.97453-.18153,1.27705-.67551.50735-1.48.77554-2.32653.77554Z"
         fill="#1f1f1f"
         id="path30" />
    </g>
    <path
       d="m39.94982,333.50674l-2.87167-1.65796c-.24791-.14313-.55779.03578-.55779.32204v3.31592c0,.28626.30989.46517.55779.32204l2.87167-1.65796c.24791-.14313.24791-.50096,0-.64409Z"
       fill="#1f1f1f"
       id="path34" />
  </g>
  <g
     id="uuid-16e16946-f162-4471-be5a-bc5549ec30e6"
     data-name="FND TXT">
    <g
       id="g49">
      <path
         d="m20.50391,211.90526c0-.29199.22656-.51709.51758-.51709h2.08789c.73438,0,1.30957.21729,1.68555.58447.30859.31689.48438.75098.48438,1.25977v.01709c0,.93506-.54297,1.50244-1.32812,1.74463l1.11914,1.41016c.09961.125.16699.23389.16699.39258,0,.28369-.24219.47559-.49316.47559-.2334,0-.38281-.1084-.5-.26709l-1.41992-1.81104h-1.29297v1.56885c0,.28369-.22559.50928-.50977.50928-.29102,0-.51758-.22559-.51758-.50928v-4.85791Zm2.5293,2.37891c.73438,0,1.20215-.38379,1.20215-.97656v-.0166c0-.62598-.4502-.96777-1.20996-.96777h-1.49414v1.96094h1.50195Z"
         fill="#1f1f1f"
         id="path37" />
      <path
         d="m26.75586,216.71288v-4.80762c0-.29199.22656-.51709.51758-.51709h3.39746c.25098,0,.45996.2085.45996.45898,0,.25879-.20898.45898-.45996.45898h-2.8877v1.51904h2.51172c.25098,0,.45898.20898.45898.46777,0,.25-.20801.4502-.45898.4502h-2.51172v1.56934h2.92969c.25,0,.45898.20898.45898.45898,0,.25879-.20898.45898-.45898.45898h-3.43945c-.29102,0-.51758-.2251-.51758-.51758Z"
         fill="#1f1f1f"
         id="path39" />
      <path
         d="m32.11426,214.32616v-.0166c0-1.66113,1.24316-3.02148,3.0127-3.02148.90234,0,1.49414.26709,2.00391.65918.10742.0835.19922.22559.19922.40918,0,.28369-.22461.50098-.50879.50098-.1416,0-.24121-.05029-.30859-.10059-.40137-.3252-.83496-.52539-1.39355-.52539-1.11035,0-1.92773.91797-1.92773,2.06152v.0166c0,1.14355.80859,2.06982,1.92773,2.06982.61719,0,1.03516-.20068,1.46094-.55908.07422-.06689.18359-.11719.30859-.11719.25781,0,.48438.21729.48438.47559,0,.15918-.07617.28418-.16797.36768-.55078.48389-1.17578.78467-2.11914.78467-1.70312,0-2.97168-1.32715-2.97168-3.00488Z"
         fill="#1f1f1f"
         id="path41" />
      <path
         d="m38.30566,214.32616v-.0166c0-1.64453,1.26855-3.02148,3.06348-3.02148,1.79395,0,3.0459,1.36035,3.0459,3.00488v.0166c0,1.64404-1.26855,3.02148-3.06348,3.02148-1.79395,0-3.0459-1.36035-3.0459-3.00488Zm5.03223,0v-.0166c0-1.13525-.82617-2.07812-1.98633-2.07812s-1.96875.92627-1.96875,2.06152v.0166c0,1.13477.82617,2.06982,1.98633,2.06982s1.96875-.91846,1.96875-2.05322Z"
         fill="#1f1f1f"
         id="path43" />
      <path
         d="m45.8418,211.90526c0-.29199.22461-.51709.51758-.51709h2.08594c.73438,0,1.31055.21729,1.68652.58447.30859.31689.4834.75098.4834,1.25977v.01709c0,.93506-.54199,1.50244-1.32617,1.74463l1.11816,1.41016c.10059.125.16699.23389.16699.39258,0,.28369-.24219.47559-.49219.47559-.23438,0-.38477-.1084-.50195-.26709l-1.41797-1.81104h-1.29395v1.56885c0,.28369-.22559.50928-.50879.50928-.29297,0-.51758-.22559-.51758-.50928v-4.85791Zm2.5293,2.37891c.73438,0,1.20117-.38379,1.20117-.97656v-.0166c0-.62598-.45117-.96777-1.20996-.96777h-1.49414v1.96094h1.50293Z"
         fill="#1f1f1f"
         id="path45" />
      <path
         d="m52.09375,211.90526c0-.29199.22461-.51709.51758-.51709h1.66016c1.83691,0,3.10547,1.26025,3.10547,2.90479v.0166c0,1.64404-1.26855,2.9209-3.10547,2.9209h-1.66016c-.29297,0-.51758-.2251-.51758-.51758v-4.80762Zm2.17773,4.39062c1.22754,0,2.0293-.82617,2.0293-1.96973v-.0166c0-1.14355-.80176-1.98633-2.0293-1.98633h-1.15137v3.97266h1.15137Z"
         fill="#1f1f1f"
         id="path47" />
    </g>
    <g
       id="g57">
      <path
         d="m25.17383,20.4912c0-.5376.42578-.96289.96484-.96289h3.03906c1.11426,0,1.97754.3125,2.55273.88818.48828.48779.75195,1.17627.75195,2.00195v.0249c0,1.37646-.68945,2.22754-1.75195,2.66504l1.33789,1.62695c.1875.2373.3125.4375.3125.73828,0,.5376-.44922.88818-.91211.88818-.43848,0-.72656-.21289-.95117-.50049l-1.87695-2.37744h-1.53906v1.91455c0,.53809-.42578.96338-.96289.96338-.53906,0-.96484-.42529-.96484-.96338v-6.90723Zm3.87891,3.29102c.93945,0,1.47656-.50049,1.47656-1.23877v-.0249c0-.82617-.5752-1.25098-1.51367-1.25098h-1.91406v2.51465h1.95117Z"
         fill="#1f1f1f"
         id="path51" />
      <path
         d="m34.39258,27.32323v-6.83203c0-.5376.4248-.96289.96289-.96289h4.85449c.47559,0,.86328.3877.86328.86328s-.3877.85059-.86328.85059h-3.90332v1.77686h3.33984c.47656,0,.86328.3877.86328.86328s-.38672.85107-.86328.85107h-3.33984v1.83887h3.96582c.47559,0,.86328.38818.86328.86328,0,.47559-.3877.85107-.86328.85107h-4.91699c-.53809,0-.96289-.42529-.96289-.96338Z"
         fill="#1f1f1f"
         id="path53" />
      <path
         d="m42.30078,23.9326v-.02539c0-2.48975,1.87695-4.5293,4.56641-4.5293,1.31445,0,2.20215.35059,2.92773.88867.20117.1499.375.4248.375.7627,0,.52588-.4248.93848-.9502.93848-.2627,0-.43848-.09961-.5752-.1875-.53906-.40039-1.10156-.62549-1.78906-.62549-1.47656,0-2.54102,1.22607-2.54102,2.72754v.0249c0,1.50146,1.03906,2.75293,2.54102,2.75293.8125,0,1.35059-.25049,1.90137-.68848.14941-.125.35059-.2124.5752-.2124.48828,0,.90039.40039.90039.88818,0,.30029-.14941.53809-.32422.68848-.78906.68799-1.71484,1.10059-3.11523,1.10059-2.57812,0-4.49219-1.98926-4.49219-4.50391Z"
         fill="#1f1f1f"
         id="path55" />
    </g>
    <g
       id="g69">
      <path
         d="m43.59863,314.58739c0-.23682.18262-.41992.41992-.41992h1.69336c.59668,0,1.06348.17627,1.36816.47412.25098.25781.39355.60986.39355,1.02344v.01318c0,.75879-.44043,1.21924-1.07715,1.41602l.90723,1.14502c.08203.10156.13574.18945.13574.31836,0,.23047-.19629.38623-.39941.38623-.18945,0-.31152-.08838-.40625-.2168l-1.15234-1.47021h-1.0498v1.27344c0,.23047-.18262.41357-.41309.41357-.2373,0-.41992-.18311-.41992-.41357v-3.94287Zm2.05273,1.93115c.5957,0,.97559-.31152.97559-.79297v-.01367c0-.50781-.36621-.78564-.98242-.78564h-1.21289v1.59229h1.21973Z"
         fill="#1f1f1f"
         id="path59" />
      <path
         d="m48.75684,314.54686c0-.23047.18262-.41309.41992-.41309.23047,0,.41309.18262.41309.41309v3.9834c0,.23047-.18262.41357-.41309.41357-.2373,0-.41992-.18311-.41992-.41357v-3.9834Z"
         fill="#1f1f1f"
         id="path61" />
      <path
         d="m50.81738,316.55223v-.01367c0-1.32764,1.0166-2.45264,2.44531-2.45264.71191,0,1.18652.16992,1.62012.48145.08105.06055.16895.17578.16895.33887,0,.22314-.18262.41309-.41309.41309-.1084,0-.18945-.04785-.25781-.09473-.30469-.22363-.63672-.37305-1.15137-.37305-.87402,0-1.53809.76562-1.53809,1.67383v.01318c0,.97559.64355,1.69385,1.6123,1.69385.44727,0,.85352-.14258,1.14551-.35938v-.88721h-.93555c-.20312,0-.37207-.15576-.37207-.35889s.16895-.36621.37207-.36621h1.32129c.2373,0,.41992.18311.41992.41992v1.26709c0,.2373-.09473.40674-.29102.52881-.40625.27051-.97559.51465-1.6875.51465-1.4834,0-2.45898-1.05664-2.45898-2.43896Z"
         fill="#1f1f1f"
         id="path63" />
      <path
         d="m56.5791,314.54686c0-.23047.18262-.41309.41992-.41309.23047,0,.41309.18262.41309.41309v1.5918h2.26367v-1.5918c0-.23047.18262-.41309.41309-.41309.2373,0,.41992.18262.41992.41309v3.9834c0,.23047-.18262.41357-.41992.41357-.23047,0-.41309-.18311-.41309-.41357v-1.61914h-2.26367v1.61914c0,.23047-.18262.41357-.41309.41357-.2373,0-.41992-.18311-.41992-.41357v-3.9834Z"
         fill="#1f1f1f"
         id="path65" />
      <path
         d="m63.04785,314.93993h-1.15234c-.2168,0-.38574-.17627-.38574-.38623s.16895-.38623.38574-.38623h3.15039c.20996,0,.37988.17627.37988.38623s-.16992.38623-.37988.38623h-1.1582v3.59033c0,.23047-.18945.41357-.41992.41357s-.41992-.18311-.41992-.41357v-3.59033Z"
         fill="#1f1f1f"
         id="path67" />
    </g>
    <g
       id="g81">
      <path
         d="m10.17383,314.54637c0-.23047.18262-.41357.41992-.41357.23047,0,.41309.18311.41309.41357v3.604h2.14746c.20996,0,.37988.16992.37988.37988s-.16992.37891-.37988.37891h-2.56055c-.2373,0-.41992-.18262-.41992-.41992v-3.94287Z"
         fill="#1f1f1f"
         id="path71" />
      <path
         d="m14.08789,319.33592l2.77051-5.67676c.06152-.12207.16309-.18994.29883-.18994.17578,0,.31836.14209.31836.31152,0,.06104-.02051.12207-.03418.1626l-2.77734,5.67773c-.06152.12158-.15625.18945-.29199.18945-.17578,0-.3252-.14258-.3252-.31152,0-.06104.02051-.12207.04102-.16309Z"
         fill="#1f1f1f"
         id="path73" />
      <path
         d="m18.29395,314.56004c0-.23047.18262-.42041.41992-.42041h.08789c.18262,0,.30469.09521.38574.22363l1.43652,2.24951,1.44336-2.25635c.08789-.14209.20996-.2168.37891-.2168h.08887c.23633,0,.41992.18994.41992.42041v3.97021c0,.22998-.18359.41309-.41992.41309-.22363,0-.41406-.18945-.41406-.41309v-2.8457l-1.1582,1.74121c-.08789.13574-.19629.2168-.35254.2168-.14844,0-.25684-.08105-.3457-.2168l-1.15137-1.72754v2.83887c0,.22998-.18262.40625-.41309.40625s-.40625-.17627-.40625-.40625v-3.97705Z"
         fill="#1f1f1f"
         id="path75" />
      <path
         d="m24.17188,316.55174v-.01367c0-1.33447,1.03027-2.45215,2.48633-2.45215,1.45703,0,2.47266,1.104,2.47266,2.43848v.01367c0,1.33496-1.0293,2.45264-2.48633,2.45264-1.45605,0-2.47266-1.104-2.47266-2.43896Zm4.08496,0v-.01367c0-.92139-.66992-1.68652-1.6123-1.68652-.94141,0-1.59863.75195-1.59863,1.67285v.01367c0,.92139.6709,1.68018,1.6123,1.68018s1.59863-.74512,1.59863-1.6665Z"
         fill="#1f1f1f"
         id="path77" />
      <path
         d="m30.34863,314.56004c0-.23047.18262-.42041.41992-.42041h.08789c.20312,0,.31836.10156.43359.24414l2.37109,3.06934v-2.91357c0-.22363.18262-.40674.40625-.40674.23047,0,.41406.18311.41406.40674v3.98389c0,.23047-.17676.41309-.40723.41309h-.0332c-.19727,0-.31836-.10156-.43359-.25098l-2.43945-3.15674v3.0083c0,.22314-.18262.40625-.40625.40625-.23047,0-.41309-.18311-.41309-.40625v-3.97705Z"
         fill="#1f1f1f"
         id="path79" />
    </g>
    <g
       id="g91">
      <path
         d="m47.45801,266.99461h-1.15234c-.2168,0-.38574-.17627-.38574-.38623s.16895-.38623.38574-.38623h3.15039c.20996,0,.37988.17627.37988.38623s-.16992.38623-.37988.38623h-1.1582v3.59033c0,.23047-.18945.41357-.41992.41357s-.41992-.18311-.41992-.41357v-3.59033Z"
         fill="#1f1f1f"
         id="path83" />
      <path
         d="m50.83691,266.64208c0-.23682.18262-.41992.41992-.41992h1.69336c.59668,0,1.06348.17627,1.36816.47412.25098.25781.39355.60986.39355,1.02344v.01318c0,.75879-.44043,1.21924-1.07715,1.41602l.90723,1.14502c.08203.10156.13574.18945.13574.31836,0,.23047-.19629.38623-.39941.38623-.18945,0-.31152-.08838-.40625-.2168l-1.15234-1.47021h-1.0498v1.27344c0,.23047-.18262.41357-.41309.41357-.2373,0-.41992-.18311-.41992-.41357v-3.94287Zm2.05273,1.93115c.5957,0,.97559-.31152.97559-.79297v-.01367c0-.50781-.36621-.78564-.98242-.78564h-1.21289v1.59229h1.21973Z"
         fill="#1f1f1f"
         id="path85" />
      <path
         d="m55.99512,266.60155c0-.23047.18262-.41309.41992-.41309.23047,0,.41309.18262.41309.41309v3.9834c0,.23047-.18262.41357-.41309.41357-.2373,0-.41992-.18311-.41992-.41357v-3.9834Z"
         fill="#1f1f1f"
         id="path87" />
      <path
         d="m58.05566,268.60692v-.01367c0-1.32764,1.0166-2.45264,2.44531-2.45264.71191,0,1.18652.16992,1.62012.48145.08105.06055.16895.17578.16895.33887,0,.22314-.18262.41309-.41309.41309-.1084,0-.18945-.04785-.25781-.09473-.30469-.22363-.63672-.37305-1.15137-.37305-.87402,0-1.53809.76562-1.53809,1.67383v.01318c0,.97559.64355,1.69385,1.6123,1.69385.44727,0,.85352-.14258,1.14551-.35938v-.88721h-.93555c-.20312,0-.37207-.15576-.37207-.35889s.16895-.36621.37207-.36621h1.32129c.2373,0,.41992.18311.41992.41992v1.26709c0,.2373-.09473.40674-.29102.52881-.40625.27051-.97559.51465-1.6875.51465-1.4834,0-2.45898-1.05664-2.45898-2.43896Z"
         fill="#1f1f1f"
         id="path89" />
    </g>
    <g
       id="g101">
      <path
         d="m13.04199,268.60643v-.01367c0-1.32764,1.0166-2.45215,2.44629-2.45215.71094,0,1.18555.16895,1.61914.48047.08105.06152.16895.17676.16895.33887,0,.22363-.18262.41357-.41309.41357-.1084,0-.18945-.04736-.25781-.09521-.30469-.22363-.63672-.37207-1.15137-.37207-.87402,0-1.53809.76514-1.53809,1.67285v.01367c0,.97559.64355,1.69385,1.6123,1.69385.44727,0,.85352-.14209,1.14551-.35889v-.8877h-.93555c-.20312,0-.37207-.15576-.37207-.35938,0-.20312.16895-.36523.37207-.36523h1.32129c.2373,0,.41992.18262.41992.41992v1.2666c0,.2373-.09473.40674-.29102.52832-.40625.27148-.97559.51514-1.6875.51514-1.4834,0-2.45898-1.05713-2.45898-2.43896Z"
         fill="#1f1f1f"
         id="path93" />
      <path
         d="m18.43555,270.42186l1.76074-3.9292c.0957-.20996.26465-.33887.50195-.33887h.04004c.2373,0,.40039.12891.49512.33887l1.76172,3.9292c.0332.06152.04688.12207.04688.17627,0,.22363-.16895.3999-.39258.3999-.19629,0-.33203-.11523-.40625-.2915l-.38672-.88721h-2.30371l-.39941.91455c-.06738.16943-.20996.26416-.38574.26416-.2168,0-.38672-.16943-.38672-.38623,0-.06104.02051-.12207.05469-.18994Zm3.10254-1.34131l-.83301-1.91748-.83398,1.91748h1.66699Z"
         fill="#1f1f1f"
         id="path95" />
      <path
         d="m24.70508,266.99413h-1.15137c-.2168,0-.38574-.17627-.38574-.38623s.16895-.38623.38574-.38623h3.15039c.20996,0,.37891.17627.37891.38623s-.16895.38623-.37891.38623h-1.1582v3.59082c0,.22998-.19043.41309-.41992.41309-.23047,0-.4209-.18311-.4209-.41309v-3.59082Z"
         fill="#1f1f1f"
         id="path97" />
      <path
         d="m28.08398,270.54393v-3.90234c0-.2373.18262-.41992.41992-.41992h2.75781c.20312,0,.37207.16943.37207.37256,0,.20996-.16895.37256-.37207.37256h-2.34473v1.2334h2.04004c.20312,0,.37207.16895.37207.37891,0,.20361-.16895.36621-.37207.36621h-2.04004v1.27344h2.37891c.20312,0,.37207.16943.37207.37305,0,.20996-.16895.37207-.37207.37207h-2.79199c-.2373,0-.41992-.18262-.41992-.41992Z"
         fill="#1f1f1f"
         id="path99" />
    </g>
    <g
       id="g109">
      <path
         d="m51.70312,198.16844h-.85156c-.17969,0-.33008-.14404-.33008-.32959,0-.18018.15039-.33008.33008-.33008h.85156v-.8335c0-.19189.14941-.3418.3418-.3418.18555,0,.3418.1499.3418.3418v.8335h.85156c.17969,0,.33008.1499.33008.33008,0,.18555-.15039.32959-.33008.32959h-.85156v.8335c0,.19189-.15625.3418-.3418.3418-.19238,0-.3418-.1499-.3418-.3418v-.8335Z"
         fill="#1f1f1f"
         id="path103" />
      <path
         d="m54.91309,196.44725l-.43164.13184c-.04199.01221-.09668.01855-.13184.01855-.17383,0-.32422-.14453-.32422-.3125,0-.15527.0957-.27539.24609-.31738l.63574-.2041c.14355-.04199.25195-.06592.36035-.06592h.01172c.20898,0,.36523.16162.36523.36572v3.55029c0,.20361-.16211.36572-.36523.36572-.19824,0-.36621-.16211-.36621-.36572v-3.1665Z"
         fill="#1f1f1f"
         id="path105" />
      <path
         d="m56.81445,199.23583l1.29004-1.09717c.5752-.48584.78516-.75586.78516-1.13379,0-.41357-.29395-.65332-.67676-.65332-.33594,0-.57031.15576-.82812.46777-.05469.05957-.13867.11377-.25781.11377-.18555,0-.33594-.1499-.33594-.33545,0-.07812.0293-.16211.08398-.22852.3418-.42578.73145-.67725,1.39062-.67725.82227,0,1.38574.50342,1.38574,1.25342v.01172c0,.65967-.34766,1.01953-1.09082,1.625l-.86426.71973h1.70312c.18066,0,.32324.14404.32324.32422,0,.17969-.14258.32324-.32324.32324h-2.37988c-.22852,0-.39648-.13184-.39648-.34766,0-.14355.06641-.26367.19141-.36572Z"
         fill="#1f1f1f"
         id="path107" />
    </g>
    <path
       d="m16.76953,198.11522c0-.19775.16211-.35938.35449-.35938h1.12793c.19141,0,.35352.16162.35352.35938,0,.19238-.16211.354-.35352.354h-1.12793c-.19238,0-.35449-.16162-.35449-.354Z"
       fill="#1f1f1f"
       id="path111" />
    <path
       d="m22.90496,198.37851c-.48955.53211-.99786,1.11515-1.77676,1.11515-.80705,0-1.38262-.64584-1.38262-1.54203,0-.82321.61467-1.54288,1.45926-1.54288.71164,0,1.23873.61528,1.70012,1.11515.48955-.53127.99943-1.11515,1.77676-1.11515.81643,0,1.38262.64668,1.38262,1.54288,0,.82321-.61467,1.54203-1.45926,1.54203-.71008,0-1.23873-.61443-1.70012-1.11515Zm-.38319-.42688c-.37537-.37511-.76951-.91741-1.32631-.91741-.48016,0-.84459.42773-.84459.91741,0,.53127.34565.91741.81643.91741.54742,0,.98848-.5109,1.35446-.91741Zm2.93884,0c0-.53211-.34565-.91741-.81643-.91741-.54742,0-.99004.5109-1.35446.91741.37381.37511.76795.91741,1.32475.91741.48016,0,.84615-.42773.84615-.91741Z"
       fill="#1f1f1f"
       id="path113" />
  </g>
  <g
     id="uuid-62b31dbe-085f-416d-8714-344fbc90ca03"
     data-name="components"
     inkscape:groupmode="layer"
     style="display:none">
    <circle
       id="uuid-971ad755-3e5e-4ffc-8623-f959c1d13d84"
       data-name="Level#RoundLargeBlackKnob"
       cx="38.811272"
       cy="175.41975"
       r="5"
       fill="#ff0000" />
    <circle
       id="uuid-cbc84c3d-8312-4c16-af9c-481defcac698"
       data-name="Rec#LargeLEDLightBezel"
       cx="38.811272"
       cy="240.5285"
       r="5"
       fill="#ff0000" />
    <circle
       id="uuid-f7111584-3950-4645-b884-13056ee2e75d"
       data-name="L#PJ301MPort"
       cx="22.330059"
       cy="334"
       r="5"
       fill="#00ff00" />
    <circle
       id="uuid-6259d08a-f116-4f3e-8111-a44c2782ad96"
       data-name="R#PJ301MPort"
       cx="54.330059"
       cy="334"
       r="5"
       fill="#00ff00" />
    <circle
       id="uuid-7bbeb9c0-7132-4433-b914-dea47a17de59"
       data-name="Gate#PJ301MPort"
       cx="22.330059"
       cy="286"
       r="5"
       fill="#00ff00" />
    <circle
       id="uuid-f793cc55-3195-488f-87c8-019edae7597c"
       data-name="Trig#PJ301MPort"
       cx="54.330059"
       cy="286"
       r="5"
       fill="#00ff00" />
    <rect
       id="uuid-79c2be38-6f9e-4b6a-a734-b92909a6d47c"
       data-name="Screen"
       y="38.499989"
       width="75"
       height="108.59145"
       fill="#ffff00"
       x="0" />
    <circle
       id="uuid-176613c0-bc51-4cb3-bfb5-8a71c7118ad6"
       data-name="Red#RedLight"
       cx="19.71401"
       cy="52.955002"
       r="3"
       fill="#ff00ff" />
    <circle
       id="uuid-c99919e0-cde1-4e77-8d89-80982c2668ef"
       data-name="Yellow#RedLight"
       cx="19.71401"
       cy="68.597191"
       r="3"
       fill="#ff00ff" />
    <circle
       id="uuid-304c35b9-1d88-45d2-baf3-c155e9fdc4a4"
       data-name="Green4#RedLight"
       cx="19.71401"
       cy="84.23938"
       r="3"
       fill="#ff00ff" />
    <circle
       id="uuid-25757d87-ecf8-4dc6-95d8-e5bd3b0153a7"
       data-name="Green3#RedLight"
       cx="19.71401"
       cy="99.881569"
       r="3"
       fill="#ff00ff" />
    <circle
       id="uuid-ecd2bcaa-64ab-40c7-8924-016ca505bc17"
       data-name="Green2#RedLight"
       cx="19.71401"
       cy="115.52376"
       r="3"
       fill="#ff00ff" />
    <circle
       id="uuid-e9d7a677-a71b-4b76-93a7-57a79fa7c165"
       data-name="Green1#RedLight"
       cx="19.71401"
       cy="131.16595"
       r="3"
       fill="#ff00ff" />
    <circle
       id="uuid-b2258569-6d22-4f1e-a83d-563596711ee5"
       data-name="RRed#RedLight"
       cx="55.20039"
       cy="52.955002"
       r="3"
       fill="#ff00ff" />
    <circle
       id="uuid-f4ab3f07-8c63-4e68-8df7-34ec5e116b68"
       data-name="RYellow#RedLight"
       cx="55.20039"
       cy="68.597191"
       r="3"
       fill="#ff00ff" />
    <circle
       id="uuid-43da28ee-f84f-4d89-92b3-1628b56d300a"
       data-name="RGreen4#RedLight"
       cx="55.20039"
       cy="84.23938"
       r="3"
       fill="#ff00ff" />
    <circle
       id="uuid-c182c52e-72de-4d9f-9cc9-d69dae81775b"
       data-name="RGreen3#RedLight"
       cx="55.20039"
       cy="99.881569"
       r="3"
       fill="#ff00ff" />
    <circle
       id="uuid-c747c225-3491-4233-b3fe-82825439e82f"
       data-name="RGreen2#RedLight"
       cx="55.20039"
       cy="115.52376"
       r="3"
       fill="#ff00ff" />
    <circle
       id="uuid-711d565b-3de9-45b8-aaf4-406d7bc94dde"
       data-name="RGreen1#RedLight"
       cx="55.20039"
       cy="131.16595"
       r="3"
       fill="#ff00ff" />
  </g>
</svg>
